<svg width="145" height="39" viewBox="0 0 145 39" xmlns="http://www.w3.org/2000/svg" >
  <path d="M0 9.53712H4.22119L14.1467 33.6638H14.4889L24.4144 9.53712H28.6356V38.6026H25.3271V16.5197H25.0419L15.915 38.6026H12.7206L3.59372 16.5197H3.3085V38.6026H0V9.53712Z" />
  <path d="M60.3694 24.0699C60.3694 27.1354 59.8133 29.7846 58.7009 32.0175C57.5886 34.2504 56.0627 35.9723 54.1232 37.1834C52.1837 38.3945 49.9686 39 47.4777 39C44.9868 39 42.7716 38.3945 40.8322 37.1834C38.8927 35.9723 37.3668 34.2504 36.2545 32.0175C35.1421 29.7846 34.5859 27.1354 34.5859 24.0699C34.5859 21.0044 35.1421 18.3552 36.2545 16.1223C37.3668 13.8894 38.8927 12.1674 40.8322 10.9563C42.7716 9.74527 44.9868 9.13974 47.4777 9.13974C49.9686 9.13974 52.1837 9.74527 54.1232 10.9563C56.0627 12.1674 57.5886 13.8894 58.7009 16.1223C59.8133 18.3552 60.3694 21.0044 60.3694 24.0699ZM56.9468 24.0699C56.9468 21.5531 56.5238 19.429 55.6776 17.6976C54.841 15.9662 53.7049 14.6558 52.2693 13.7664C50.8432 12.877 49.246 12.4323 47.4777 12.4323C45.7094 12.4323 44.1074 12.877 42.6718 13.7664C41.2457 14.6558 40.1096 15.9662 39.2635 17.6976C38.4268 19.429 38.0085 21.5531 38.0085 24.0699C38.0085 26.5866 38.4268 28.7107 39.2635 30.4421C40.1096 32.1736 41.2457 33.484 42.6718 34.3734C44.1074 35.2627 45.7094 35.7074 47.4777 35.7074C49.246 35.7074 50.8432 35.2627 52.2693 34.3734C53.7049 33.484 54.841 32.1736 55.6776 30.4421C56.5238 28.7107 56.9468 26.5866 56.9468 24.0699ZM45.9375 6.58515L49.4172 0H53.3531L48.9038 6.58515H45.9375Z" />
  <path d="M89.8179 18.6201H86.2813C86.0721 17.6077 85.7061 16.7183 85.1832 15.952C84.6698 15.1856 84.0423 14.5422 83.3008 14.0218C82.5687 13.492 81.7558 13.0946 80.8622 12.8297C79.9685 12.5648 79.0368 12.4323 78.067 12.4323C76.2987 12.4323 74.6967 12.877 73.2612 13.7664C71.8351 14.6558 70.699 15.9662 69.8528 17.6976C69.0162 19.429 68.5979 21.5531 68.5979 24.0699C68.5979 26.5866 69.0162 28.7107 69.8528 30.4421C70.699 32.1736 71.8351 33.484 73.2612 34.3734C74.6967 35.2627 76.2987 35.7074 78.067 35.7074C79.0368 35.7074 79.9685 35.575 80.8622 35.31C81.7558 35.0451 82.5687 34.6525 83.3008 34.1321C84.0423 33.6023 84.6698 32.9542 85.1832 32.1878C85.7061 31.4119 86.0721 30.5226 86.2813 29.5197H89.8179C89.5517 31.0051 89.0669 32.3344 88.3633 33.5076C87.6598 34.6809 86.7851 35.679 85.7393 36.5022C84.6936 37.3159 83.5194 37.9356 82.2169 38.3614C80.924 38.7871 79.5407 39 78.067 39C75.5762 39 73.361 38.3945 71.4215 37.1834C69.4821 35.9723 67.9562 34.2504 66.8438 32.0175C65.7315 29.7846 65.1753 27.1354 65.1753 24.0699C65.1753 21.0044 65.7315 18.3552 66.8438 16.1223C67.9562 13.8894 69.4821 12.1674 71.4215 10.9563C73.361 9.74527 75.5762 9.13974 78.067 9.13974C79.5407 9.13974 80.924 9.35262 82.2169 9.77838C83.5194 10.2041 84.6936 10.8286 85.7393 11.6517C86.7851 12.4654 87.6598 13.4589 88.3633 14.6321C89.0669 15.7959 89.5517 17.1252 89.8179 18.6201Z" />
  <path d="M95.5329 38.6026V9.53712H99.0696V23.9563H99.4119L112.532 9.53712H117.152L104.888 22.6507L117.152 38.6026H112.874L102.72 25.0917L99.0696 29.179V38.6026H95.5329Z" />
  <path d="M145 24.0699C145 27.1354 144.444 29.7846 143.331 32.0175C142.219 34.2504 140.693 35.9723 138.754 37.1834C136.814 38.3945 134.599 39 132.108 39C129.617 39 127.402 38.3945 125.463 37.1834C123.523 35.9723 121.997 34.2504 120.885 32.0175C119.773 29.7846 119.217 27.1354 119.217 24.0699C119.217 21.0044 119.773 18.3552 120.885 16.1223C121.997 13.8894 123.523 12.1674 125.463 10.9563C127.402 9.74527 129.617 9.13974 132.108 9.13974C134.599 9.13974 136.814 9.74527 138.754 10.9563C140.693 12.1674 142.219 13.8894 143.331 16.1223C144.444 18.3552 145 21.0044 145 24.0699ZM141.577 24.0699C141.577 21.5531 141.154 19.429 140.308 17.6976C139.472 15.9662 138.335 14.6558 136.9 13.7664C135.474 12.877 133.877 12.4323 132.108 12.4323C130.34 12.4323 128.738 12.877 127.302 13.7664C125.876 14.6558 124.74 15.9662 123.894 17.6976C123.057 19.429 122.639 21.5531 122.639 24.0699C122.639 26.5866 123.057 28.7107 123.894 30.4421C124.74 32.1736 125.876 33.484 127.302 34.3734C128.738 35.2627 130.34 35.7074 132.108 35.7074C133.877 35.7074 135.474 35.2627 136.9 34.3734C138.335 33.484 139.472 32.1736 140.308 30.4421C141.154 28.7107 141.577 26.5866 141.577 24.0699Z" />
</svg>
