<svg viewBox="0 0 24 24" fill="none" xmlns="http://www.w3.org/2000/svg">
<path d="M1.71387 6H22.2853" stroke="currentColor" stroke-linecap="round" stroke-linejoin="round"/>
<path d="M4.28516 6H19.7137V21.4286C19.7137 21.8832 19.5331 22.3193 19.2116 22.6408C18.8901 22.9622 18.4541 23.1429 17.9994 23.1429H5.99944C5.54479 23.1429 5.10875 22.9622 4.78726 22.6408C4.46577 22.3193 4.28516 21.8832 4.28516 21.4286V6Z" stroke="currentColor" stroke-linecap="round" stroke-linejoin="round"/>
<path d="M7.71387 6V5.14286C7.71387 4.00622 8.1654 2.91613 8.96912 2.1124C9.77285 1.30868 10.8629 0.857147 11.9996 0.857147C13.1362 0.857147 14.2263 1.30868 15.03 2.1124C15.8338 2.91613 16.2853 4.00622 16.2853 5.14286V6" stroke="currentColor" stroke-linecap="round" stroke-linejoin="round"/>
<path d="M9.42773 9.42859V18.8572" stroke="currentColor" stroke-linecap="round" stroke-linejoin="round"/>
<path d="M14.5713 9.42859V18.8572" stroke="currentColor" stroke-linecap="round" stroke-linejoin="round"/>
</svg>
